<?xml version="1.0" encoding="UTF-8"?>
<svg xmlns="http://www.w3.org/2000/svg" xmlns:xlink="http://www.w3.org/1999/xlink" width="3840pt" height="2160pt" viewBox="0 0 3840 2160" version="1.1">
<defs>
<linearGradient id="linear0" gradientUnits="userSpaceOnUse" x1="0" y1="0" x2="3840" y2="2160" >
<stop offset="0" style="stop-color:rgb(15%,31.100279%,100%);stop-opacity:1;"/>
<stop offset="0.5" style="stop-color:rgb(0%,72.423398%,100%);stop-opacity:1;"/>
</linearGradient>
<linearGradient id="linear1" gradientUnits="userSpaceOnUse" x1="0" y1="0" x2="3840" y2="2160" >
<stop offset="0" style="stop-color:rgb(65%,21.45%,30.184262%);stop-opacity:1;"/>
<stop offset="0.5" style="stop-color:rgb(95%,36.78273%,19%);stop-opacity:1;"/>
</linearGradient>
<linearGradient id="linear2" gradientUnits="userSpaceOnUse" x1="0" y1="2160" x2="0" y2="908.308557" >
<stop offset="0" style="stop-color:rgb(100%,100%,100%);stop-opacity:1;"/>
<stop offset="0.5" style="stop-color:rgb(0%,0%,0%);stop-opacity:0;"/>
</linearGradient>
<linearGradient id="linear3" gradientUnits="userSpaceOnUse" x1="0" y1="0" x2="3840" y2="2160" >
<stop offset="0" style="stop-color:rgb(57.107143%,24.311327%,30.88876%);stop-opacity:1;"/>
<stop offset="0.5" style="stop-color:rgb(83.464286%,39.623117%,26.231633%);stop-opacity:1;"/>
</linearGradient>
<linearGradient id="linear4" gradientUnits="userSpaceOnUse" x1="0" y1="2160" x2="0" y2="842.030629" >
<stop offset="0" style="stop-color:rgb(100%,100%,100%);stop-opacity:0.892857;"/>
<stop offset="0.5" style="stop-color:rgb(0%,0%,0%);stop-opacity:0;"/>
</linearGradient>
<linearGradient id="linear5" gradientUnits="userSpaceOnUse" x1="0" y1="0" x2="3840" y2="2160" >
<stop offset="0" style="stop-color:rgb(49.214286%,25.661735%,30.385366%);stop-opacity:1;"/>
<stop offset="0.5" style="stop-color:rgb(71.928571%,40.443721%,30.826531%);stop-opacity:1;"/>
</linearGradient>
<linearGradient id="linear6" gradientUnits="userSpaceOnUse" x1="0" y1="2160" x2="0" y2="716.276454" >
<stop offset="0" style="stop-color:rgb(100%,100%,100%);stop-opacity:0.785714;"/>
<stop offset="0.5" style="stop-color:rgb(0%,0%,0%);stop-opacity:0;"/>
</linearGradient>
<linearGradient id="linear7" gradientUnits="userSpaceOnUse" x1="0" y1="0" x2="3840" y2="2160" >
<stop offset="0" style="stop-color:rgb(41.321429%,25.501224%,28.674079%);stop-opacity:1;"/>
<stop offset="0.5" style="stop-color:rgb(60.392857%,39.244543%,32.784694%);stop-opacity:1;"/>
</linearGradient>
<linearGradient id="linear8" gradientUnits="userSpaceOnUse" x1="0" y1="2160" x2="0" y2="687.849381" >
<stop offset="0" style="stop-color:rgb(100%,100%,100%);stop-opacity:0.678571;"/>
<stop offset="0.5" style="stop-color:rgb(0%,0%,0%);stop-opacity:0;"/>
</linearGradient>
<linearGradient id="linear9" gradientUnits="userSpaceOnUse" x1="0" y1="0" x2="3840" y2="2160" >
<stop offset="0" style="stop-color:rgb(33.428571%,23.829796%,25.754899%);stop-opacity:1;"/>
<stop offset="0.5" style="stop-color:rgb(48.857143%,36.025581%,32.106122%);stop-opacity:1;"/>
</linearGradient>
<linearGradient id="linear10" gradientUnits="userSpaceOnUse" x1="0" y1="2160" x2="0" y2="603.810095" >
<stop offset="0" style="stop-color:rgb(100%,100%,100%);stop-opacity:0.571429;"/>
<stop offset="0.5" style="stop-color:rgb(0%,0%,0%);stop-opacity:0;"/>
</linearGradient>
<linearGradient id="linear11" gradientUnits="userSpaceOnUse" x1="0" y1="0" x2="3840" y2="2160" >
<stop offset="0" style="stop-color:rgb(25.535714%,20.647449%,21.627825%);stop-opacity:1;"/>
<stop offset="0.5" style="stop-color:rgb(37.321429%,30.786837%,28.790816%);stop-opacity:1;"/>
</linearGradient>
<linearGradient id="linear12" gradientUnits="userSpaceOnUse" x1="0" y1="2160" x2="0" y2="543.311493" >
<stop offset="0" style="stop-color:rgb(100%,100%,100%);stop-opacity:0.464286;"/>
<stop offset="0.5" style="stop-color:rgb(0%,0%,0%);stop-opacity:0;"/>
</linearGradient>
<linearGradient id="linear13" gradientUnits="userSpaceOnUse" x1="0" y1="0" x2="3840" y2="2160" >
<stop offset="0" style="stop-color:rgb(17.642857%,15.954184%,16.292859%);stop-opacity:1;"/>
<stop offset="0.5" style="stop-color:rgb(25.785714%,23.52831%,22.838776%);stop-opacity:1;"/>
</linearGradient>
<linearGradient id="linear14" gradientUnits="userSpaceOnUse" x1="0" y1="2160" x2="0" y2="472.282057" >
<stop offset="0" style="stop-color:rgb(100%,100%,100%);stop-opacity:0.357143;"/>
<stop offset="0.5" style="stop-color:rgb(0%,0%,0%);stop-opacity:0;"/>
</linearGradient>
<linearGradient id="linear15" gradientUnits="userSpaceOnUse" x1="0" y1="0" x2="3840" y2="2160" >
<stop offset="0" style="stop-color:rgb(9.75%,9.75%,9.75%);stop-opacity:1;"/>
<stop offset="0.5" style="stop-color:rgb(14.25%,14.25%,14.25%);stop-opacity:1;"/>
</linearGradient>
<linearGradient id="linear16" gradientUnits="userSpaceOnUse" x1="0" y1="2160" x2="0" y2="392.339991" >
<stop offset="0" style="stop-color:rgb(100%,100%,100%);stop-opacity:0.25;"/>
<stop offset="0.5" style="stop-color:rgb(0%,0%,0%);stop-opacity:0;"/>
</linearGradient>
</defs>
<g id="surface1">
<rect x="0" y="0" width="3840" height="2160" style="fill:url(#linear0);stroke:none;"/>
<path style=" stroke:none;fill-rule:nonzero;fill:rgb(100%,100%,100%);fill-opacity:1;" d="M 3480 324 C 3480 443.292969 3383.292969 540 3264 540 C 3144.707031 540 3048 443.292969 3048 324 C 3048 204.707031 3144.707031 108 3264 108 C 3383.292969 108 3480 204.707031 3480 324 "/>
<path style=" stroke:none;fill-rule:nonzero;fill:url(#linear1);" d="M 4002.023438 1257.21875 L 3709.714844 748.949219 L 3368.992188 1226.035156 L 3103.558594 750.914062 L 2783.171875 972.78125 L 2498.078125 569.625 L 2244.53125 1229.640625 L 1908.371094 1029.242188 L 1603.660156 1271.125 L 1325.066406 966.183594 L 1052.519531 1186.300781 L 711.488281 343.382812 L 463.925781 985.121094 L 145.140625 1259.296875 L -135.101562 948.429688 L 0 2160 L 3840 2160 Z M 4002.023438 1257.21875 "/>
<path style=" stroke:none;fill-rule:nonzero;fill:url(#linear2);" d="M 4002.023438 1257.21875 L 3709.714844 748.949219 L 3368.992188 1226.035156 L 3103.558594 750.914062 L 2783.171875 972.78125 L 2498.078125 569.625 L 2244.53125 1229.640625 L 1908.371094 1029.242188 L 1603.660156 1271.125 L 1325.066406 966.183594 L 1052.519531 1186.300781 L 711.488281 343.382812 L 463.925781 985.121094 L 145.140625 1259.296875 L -135.101562 948.429688 L 0 2160 L 3840 2160 Z M 4002.023438 1257.21875 "/>
<path style=" stroke:none;fill-rule:nonzero;fill:url(#linear3);" d="M 3979.859375 879.636719 L 3735.488281 542.714844 L 3478.121094 1052.371094 L 3211.523438 563.027344 L 2921.3125 967.5625 L 2677.65625 786.953125 L 2409.550781 1060.972656 L 2159.433594 1232.421875 L 1900.371094 475.9375 L 1650.433594 730.460938 L 1427.117188 1183.023438 L 1164.679688 849.640625 L 877.777344 954.117188 L 623.328125 492.179688 L 397.957031 1018.917969 L 102.746094 597.835938 L -138.242188 1329.269531 L 0 2160 L 3840 2160 Z M 3979.859375 879.636719 "/>
<path style=" stroke:none;fill-rule:nonzero;fill:url(#linear4);" d="M 3979.859375 879.636719 L 3735.488281 542.714844 L 3478.121094 1052.371094 L 3211.523438 563.027344 L 2921.3125 967.5625 L 2677.65625 786.953125 L 2409.550781 1060.972656 L 2159.433594 1232.421875 L 1900.371094 475.9375 L 1650.433594 730.460938 L 1427.117188 1183.023438 L 1164.679688 849.640625 L 877.777344 954.117188 L 623.328125 492.179688 L 397.957031 1018.917969 L 102.746094 597.835938 L -138.242188 1329.269531 L 0 2160 L 3840 2160 Z M 3979.859375 879.636719 "/>
<path style=" stroke:none;fill-rule:nonzero;fill:url(#linear5);" d="M 4044.976562 832.300781 L 3652.738281 751.222656 L 3173.859375 994.097656 L 2745.761719 738.863281 L 2372.507812 923.25 L 1943.964844 727.445312 L 1473.035156 986.308594 L 1064.730469 1332.625 L 659.960938 774.445312 L 172.808594 989.972656 L -249.082031 835.070312 L 0 2160 L 3840 2160 Z M 4044.976562 832.300781 "/>
<path style=" stroke:none;fill-rule:nonzero;fill:url(#linear6);" d="M 4044.976562 832.300781 L 3652.738281 751.222656 L 3173.859375 994.097656 L 2745.761719 738.863281 L 2372.507812 923.25 L 1943.964844 727.445312 L 1473.035156 986.308594 L 1064.730469 1332.625 L 659.960938 774.445312 L 172.808594 989.972656 L -249.082031 835.070312 L 0 2160 L 3840 2160 Z M 4044.976562 832.300781 "/>
<path style=" stroke:none;fill-rule:nonzero;fill:url(#linear7);" d="M 4015.34375 1364.671875 L 3659.203125 1231.347656 L 3328.199219 1057.246094 L 3054.484375 991.078125 L 2724.398438 784.300781 L 2399.65625 916.246094 L 2079.011719 1070.097656 L 1740.332031 1236.917969 L 1451.886719 1298.398438 L 1098.707031 987.894531 L 802.355469 1148.289062 L 487.863281 1086.347656 L 157.695312 1403.898438 L -174.171875 1235.460938 L 0 2160 L 3840 2160 Z M 4015.34375 1364.671875 "/>
<path style=" stroke:none;fill-rule:nonzero;fill:url(#linear8);" d="M 4015.34375 1364.671875 L 3659.203125 1231.347656 L 3328.199219 1057.246094 L 3054.484375 991.078125 L 2724.398438 784.300781 L 2399.65625 916.246094 L 2079.011719 1070.097656 L 1740.332031 1236.917969 L 1451.886719 1298.398438 L 1098.707031 987.894531 L 802.355469 1148.289062 L 487.863281 1086.347656 L 157.695312 1403.898438 L -174.171875 1235.460938 L 0 2160 L 3840 2160 Z M 4015.34375 1364.671875 "/>
<path style=" stroke:none;fill-rule:nonzero;fill:url(#linear9);" d="M 3923.609375 1037.679688 L 3758.734375 1285.34375 L 3565.289062 1097.015625 L 3380.941406 1353.773438 L 3204.683594 1001.460938 L 3022.457031 1203.808594 L 2851.6875 1412.980469 L 2658.046875 952.378906 L 2477.804688 987.835938 L 2285.296875 1357.433594 L 2113.191406 1090.464844 L 1928.011719 1250.890625 L 1733.253906 1052.777344 L 1554.542969 1301.804688 L 1367.828125 979.582031 L 1205.71875 1093.1875 L 1020.265625 1376.40625 L 829.804688 976.503906 L 623.726562 1144.816406 L 474.898438 1271.179688 L 273.078125 1120.347656 L 97.261719 1079.890625 L -100.265625 1153.65625 L 0 2160 L 3840 2160 Z M 3923.609375 1037.679688 "/>
<path style=" stroke:none;fill-rule:nonzero;fill:url(#linear10);" d="M 3923.609375 1037.679688 L 3758.734375 1285.34375 L 3565.289062 1097.015625 L 3380.941406 1353.773438 L 3204.683594 1001.460938 L 3022.457031 1203.808594 L 2851.6875 1412.980469 L 2658.046875 952.378906 L 2477.804688 987.835938 L 2285.296875 1357.433594 L 2113.191406 1090.464844 L 1928.011719 1250.890625 L 1733.253906 1052.777344 L 1554.542969 1301.804688 L 1367.828125 979.582031 L 1205.71875 1093.1875 L 1020.265625 1376.40625 L 829.804688 976.503906 L 623.726562 1144.816406 L 474.898438 1271.179688 L 273.078125 1120.347656 L 97.261719 1079.890625 L -100.265625 1153.65625 L 0 2160 L 3840 2160 Z M 3923.609375 1037.679688 "/>
<path style=" stroke:none;fill-rule:nonzero;fill:url(#linear11);" d="M 3991.71875 1322.796875 L 3710.21875 1418.046875 L 3480.949219 1443.945312 L 3193.496094 1248.535156 L 2963 1442.308594 L 2702.617188 1312.703125 L 2431.972656 1151.542969 L 2183.476562 1370.371094 L 1898.582031 1175.316406 L 1666.015625 1243.808594 L 1421.285156 1105.550781 L 1169.339844 1073.378906 L 909.585938 1239.800781 L 622.183594 1158.828125 L 397.890625 1349.554688 L 135.941406 1325.402344 L -151.8125 1231.640625 L 0 2160 L 3840 2160 Z M 3991.71875 1322.796875 "/>
<path style=" stroke:none;fill-rule:nonzero;fill:url(#linear12);" d="M 3991.71875 1322.796875 L 3710.21875 1418.046875 L 3480.949219 1443.945312 L 3193.496094 1248.535156 L 2963 1442.308594 L 2702.617188 1312.703125 L 2431.972656 1151.542969 L 2183.476562 1370.371094 L 1898.582031 1175.316406 L 1666.015625 1243.808594 L 1421.285156 1105.550781 L 1169.339844 1073.378906 L 909.585938 1239.800781 L 622.183594 1158.828125 L 397.890625 1349.554688 L 135.941406 1325.402344 L -151.8125 1231.640625 L 0 2160 L 3840 2160 Z M 3991.71875 1322.796875 "/>
<path style=" stroke:none;fill-rule:nonzero;fill:url(#linear13);" d="M 3965.484375 1215.4375 L 3725.003906 1377.078125 L 3471.355469 1220.226562 L 3208.304688 1319.492188 L 2921.203125 1232.570312 L 2666.199219 1442.988281 L 2426.816406 1285.234375 L 2185.15625 1319.785156 L 1928.308594 1417.339844 L 1660.9375 1287.433594 L 1384.066406 1300.246094 L 1138.851562 1242.527344 L 885.691406 1308.308594 L 652.882812 1329.910156 L 392.445312 1477.726562 L 132.746094 1332.582031 L -143.832031 1414.105469 L 0 2160 L 3840 2160 Z M 3965.484375 1215.4375 "/>
<path style=" stroke:none;fill-rule:nonzero;fill:url(#linear14);" d="M 3965.484375 1215.4375 L 3725.003906 1377.078125 L 3471.355469 1220.226562 L 3208.304688 1319.492188 L 2921.203125 1232.570312 L 2666.199219 1442.988281 L 2426.816406 1285.234375 L 2185.15625 1319.785156 L 1928.308594 1417.339844 L 1660.9375 1287.433594 L 1384.066406 1300.246094 L 1138.851562 1242.527344 L 885.691406 1308.308594 L 652.882812 1329.910156 L 392.445312 1477.726562 L 132.746094 1332.582031 L -143.832031 1414.105469 L 0 2160 L 3840 2160 Z M 3965.484375 1215.4375 "/>
<path style=" stroke:none;fill-rule:nonzero;fill:url(#linear15);" d="M 3958.523438 1392.070312 L 3676.714844 1377.414062 L 3432.75 1401.953125 L 3147.757812 1413.933594 L 2899.042969 1480.28125 L 2602.980469 1375.320312 L 2306.359375 1438.273438 L 2068.207031 1506.027344 L 1773.628906 1412.382812 L 1511.445312 1508.550781 L 1250.53125 1433.042969 L 985.902344 1448.230469 L 670.117188 1471.714844 L 412.175781 1443.847656 L 160.914062 1487.175781 L -162.253906 1498.640625 L 0 2160 L 3840 2160 Z M 3958.523438 1392.070312 "/>
<path style=" stroke:none;fill-rule:nonzero;fill:url(#linear16);" d="M 3958.523438 1392.070312 L 3676.714844 1377.414062 L 3432.75 1401.953125 L 3147.757812 1413.933594 L 2899.042969 1480.28125 L 2602.980469 1375.320312 L 2306.359375 1438.273438 L 2068.207031 1506.027344 L 1773.628906 1412.382812 L 1511.445312 1508.550781 L 1250.53125 1433.042969 L 985.902344 1448.230469 L 670.117188 1471.714844 L 412.175781 1443.847656 L 160.914062 1487.175781 L -162.253906 1498.640625 L 0 2160 L 3840 2160 Z M 3958.523438 1392.070312 "/>
</g>
</svg>
